<svg id="svg" version="1.1" xmlns="http://www.w3.org/2000/svg" xmlns:xlink="http://www.w3.org/1999/xlink" width="400" height="22.916666666666668" viewBox="0, 0, 400,22.916666666666668"><g id="svgg"><path id="path0" d="M0.000 14.475 L 0.000 22.833 200.000 22.833 L 400.000 22.833 400.000 14.475 L 400.000 6.117 393.458 6.218 C 387.999 6.303,384.486 6.442,381.250 6.703 C 380.975 6.725,380.712 6.785,380.667 6.837 C 380.621 6.888,379.094 7.063,377.273 7.226 C 375.452 7.388,373.840 7.585,373.690 7.663 C 373.539 7.742,372.367 7.932,371.083 8.087 C 369.800 8.241,368.675 8.423,368.583 8.491 C 368.492 8.559,367.742 8.711,366.917 8.829 C 366.092 8.947,365.379 9.094,365.333 9.156 C 365.287 9.219,364.200 9.442,362.917 9.652 C 361.633 9.863,360.546 10.091,360.500 10.159 C 360.454 10.226,359.704 10.417,358.833 10.583 C 357.962 10.749,357.212 10.940,357.167 11.006 C 357.121 11.073,356.487 11.250,355.758 11.400 C 355.029 11.550,354.391 11.734,354.341 11.809 C 354.291 11.883,353.556 12.084,352.708 12.254 C 351.860 12.424,351.167 12.613,351.167 12.672 C 351.167 12.732,350.510 12.918,349.708 13.084 C 348.906 13.251,348.212 13.441,348.167 13.508 C 348.066 13.652,346.105 14.167,345.653 14.167 C 345.477 14.167,345.333 14.232,345.333 14.313 C 345.333 14.393,344.658 14.590,343.833 14.750 C 343.008 14.910,342.333 15.094,342.333 15.159 C 342.333 15.224,341.583 15.415,340.667 15.583 C 339.750 15.752,339.000 15.939,339.000 16.000 C 339.000 16.061,338.250 16.248,337.333 16.417 C 336.417 16.585,335.667 16.772,335.667 16.833 C 335.667 16.893,334.523 17.118,333.125 17.331 C 331.727 17.545,330.546 17.775,330.500 17.843 C 330.454 17.911,329.367 18.096,328.083 18.255 C 326.800 18.413,325.675 18.600,325.583 18.670 C 325.492 18.740,323.917 18.932,322.083 19.096 C 320.250 19.261,318.712 19.447,318.667 19.510 C 318.124 20.258,281.876 20.258,281.333 19.510 C 281.287 19.447,279.750 19.261,277.917 19.096 C 276.083 18.932,274.508 18.740,274.417 18.670 C 274.325 18.600,273.200 18.413,271.917 18.255 C 270.633 18.096,269.546 17.912,269.500 17.845 C 269.454 17.777,268.292 17.549,266.917 17.338 C 265.542 17.126,264.379 16.898,264.333 16.831 C 264.287 16.764,263.519 16.578,262.625 16.418 C 261.731 16.258,261.000 16.073,261.000 16.006 C 261.000 15.939,260.250 15.753,259.333 15.591 C 258.417 15.430,257.667 15.241,257.667 15.170 C 257.667 15.099,256.992 14.910,256.167 14.750 C 255.342 14.590,254.667 14.393,254.667 14.313 C 254.667 14.232,254.523 14.167,254.347 14.167 C 253.895 14.167,251.934 13.652,251.833 13.508 C 251.787 13.441,251.094 13.251,250.292 13.084 C 249.490 12.918,248.833 12.732,248.833 12.672 C 248.833 12.613,248.140 12.424,247.292 12.254 C 246.444 12.084,245.709 11.883,245.659 11.809 C 245.609 11.734,244.971 11.550,244.242 11.400 C 243.513 11.250,242.879 11.073,242.833 11.006 C 242.787 10.940,242.037 10.751,241.167 10.586 C 240.296 10.422,239.503 10.224,239.404 10.147 C 239.306 10.071,238.218 9.841,236.988 9.638 C 235.757 9.435,234.713 9.218,234.667 9.156 C 234.621 9.094,233.908 8.947,233.083 8.829 C 232.258 8.711,231.508 8.559,231.417 8.491 C 231.325 8.423,230.200 8.240,228.917 8.084 C 227.633 7.928,226.433 7.735,226.250 7.656 C 225.886 7.497,221.052 7.000,219.877 7.000 C 219.476 7.000,219.186 6.937,219.233 6.861 C 219.280 6.785,219.228 6.720,219.118 6.717 C 219.007 6.714,217.342 6.607,215.417 6.481 C 210.629 6.165,189.484 6.160,184.583 6.474 C 180.701 6.722,180.783 6.714,180.667 6.840 C 180.621 6.890,179.094 7.063,177.273 7.226 C 175.452 7.388,173.840 7.585,173.690 7.663 C 173.539 7.742,172.367 7.932,171.083 8.087 C 169.800 8.241,168.675 8.423,168.583 8.491 C 168.492 8.559,167.742 8.711,166.917 8.829 C 166.092 8.947,165.379 9.094,165.333 9.156 C 165.287 9.219,164.200 9.442,162.917 9.652 C 161.633 9.863,160.546 10.091,160.500 10.159 C 160.454 10.226,159.704 10.417,158.833 10.583 C 157.962 10.749,157.212 10.940,157.167 11.006 C 157.121 11.073,156.487 11.250,155.758 11.400 C 155.029 11.550,154.391 11.734,154.341 11.809 C 154.291 11.883,153.556 12.084,152.708 12.254 C 151.860 12.424,151.167 12.613,151.167 12.672 C 151.167 12.732,150.510 12.918,149.708 13.084 C 148.906 13.251,148.212 13.441,148.167 13.508 C 148.066 13.652,146.105 14.167,145.653 14.167 C 145.477 14.167,145.333 14.232,145.333 14.313 C 145.333 14.393,144.658 14.590,143.833 14.750 C 143.008 14.910,142.333 15.094,142.333 15.159 C 142.333 15.224,141.583 15.415,140.667 15.583 C 139.750 15.752,139.000 15.939,139.000 16.000 C 139.000 16.061,138.250 16.248,137.333 16.417 C 136.417 16.585,135.667 16.772,135.667 16.833 C 135.667 16.893,134.523 17.118,133.125 17.331 C 131.727 17.545,130.546 17.775,130.500 17.843 C 130.454 17.911,129.367 18.096,128.083 18.255 C 126.800 18.413,125.675 18.600,125.583 18.670 C 125.492 18.740,123.917 18.932,122.083 19.096 C 120.250 19.261,118.712 19.447,118.667 19.510 C 118.124 20.258,81.876 20.258,81.333 19.510 C 81.287 19.447,79.750 19.261,77.917 19.096 C 76.083 18.932,74.508 18.740,74.417 18.670 C 74.325 18.600,73.200 18.413,71.917 18.255 C 70.633 18.096,69.546 17.912,69.500 17.845 C 69.454 17.777,68.292 17.549,66.917 17.338 C 65.542 17.126,64.379 16.898,64.333 16.831 C 64.287 16.764,63.519 16.578,62.625 16.418 C 61.731 16.258,61.000 16.073,61.000 16.006 C 61.000 15.939,60.250 15.753,59.333 15.591 C 58.417 15.430,57.667 15.241,57.667 15.170 C 57.667 15.099,56.992 14.910,56.167 14.750 C 55.342 14.590,54.667 14.393,54.667 14.313 C 54.667 14.232,54.523 14.167,54.347 14.167 C 53.895 14.167,51.934 13.652,51.833 13.508 C 51.788 13.441,51.094 13.251,50.292 13.084 C 49.490 12.918,48.833 12.732,48.833 12.672 C 48.833 12.613,48.140 12.424,47.292 12.254 C 46.444 12.084,45.709 11.883,45.659 11.809 C 45.609 11.734,44.971 11.550,44.242 11.400 C 43.513 11.250,42.879 11.073,42.833 11.006 C 42.788 10.940,42.037 10.751,41.167 10.586 C 40.296 10.422,39.503 10.224,39.404 10.147 C 39.306 10.071,38.218 9.841,36.988 9.638 C 35.757 9.435,34.712 9.218,34.667 9.156 C 34.621 9.094,33.908 8.947,33.083 8.829 C 32.258 8.711,31.508 8.559,31.417 8.491 C 31.325 8.423,30.200 8.240,28.917 8.084 C 27.633 7.928,26.433 7.735,26.250 7.656 C 25.886 7.497,21.052 7.000,19.877 7.000 C 19.476 7.000,19.184 6.939,19.230 6.865 C 19.276 6.791,18.999 6.713,18.615 6.690 C 18.231 6.668,16.867 6.578,15.583 6.489 C 14.300 6.400,10.269 6.280,6.625 6.222 L 0.000 6.117 0.000 14.475 " stroke="none" fill="#6cbcfc" fill-rule="evenodd"></path><path id="path1" d="M34.875 9.282 C 35.035 9.323,35.298 9.323,35.458 9.282 C 35.619 9.240,35.487 9.205,35.167 9.205 C 34.846 9.205,34.715 9.240,34.875 9.282 M164.542 9.282 C 164.702 9.323,164.965 9.323,165.125 9.282 C 165.285 9.240,165.154 9.205,164.833 9.205 C 164.512 9.205,164.381 9.240,164.542 9.282 M234.875 9.282 C 235.035 9.323,235.298 9.323,235.458 9.282 C 235.619 9.240,235.487 9.205,235.167 9.205 C 234.846 9.205,234.715 9.240,234.875 9.282 M364.542 9.282 C 364.702 9.323,364.965 9.323,365.125 9.282 C 365.285 9.240,365.154 9.205,364.833 9.205 C 364.512 9.205,364.381 9.240,364.542 9.282 " stroke="none" fill="#70bcfc" fill-rule="evenodd"></path><path id="path2" d="M34.875 9.282 C 35.035 9.323,35.298 9.323,35.458 9.282 C 35.619 9.240,35.487 9.205,35.167 9.205 C 34.846 9.205,34.715 9.240,34.875 9.282 M164.542 9.282 C 164.702 9.323,164.965 9.323,165.125 9.282 C 165.285 9.240,165.154 9.205,164.833 9.205 C 164.512 9.205,164.381 9.240,164.542 9.282 M234.875 9.282 C 235.035 9.323,235.298 9.323,235.458 9.282 C 235.619 9.240,235.487 9.205,235.167 9.205 C 234.846 9.205,234.715 9.240,234.875 9.282 M364.542 9.282 C 364.702 9.323,364.965 9.323,365.125 9.282 C 365.285 9.240,365.154 9.205,364.833 9.205 C 364.512 9.205,364.381 9.240,364.542 9.282 " stroke="none" fill="#70bcfc" fill-rule="evenodd"></path><path id="path3" d="M34.875 9.282 C 35.035 9.323,35.298 9.323,35.458 9.282 C 35.619 9.240,35.487 9.205,35.167 9.205 C 34.846 9.205,34.715 9.240,34.875 9.282 M164.542 9.282 C 164.702 9.323,164.965 9.323,165.125 9.282 C 165.285 9.240,165.154 9.205,164.833 9.205 C 164.512 9.205,164.381 9.240,164.542 9.282 M234.875 9.282 C 235.035 9.323,235.298 9.323,235.458 9.282 C 235.619 9.240,235.487 9.205,235.167 9.205 C 234.846 9.205,234.715 9.240,234.875 9.282 M364.542 9.282 C 364.702 9.323,364.965 9.323,365.125 9.282 C 365.285 9.240,365.154 9.205,364.833 9.205 C 364.512 9.205,364.381 9.240,364.542 9.282 " stroke="none" fill="#70bcfc" fill-rule="evenodd"></path><path id="path4" d="M34.875 9.282 C 35.035 9.323,35.298 9.323,35.458 9.282 C 35.619 9.240,35.487 9.205,35.167 9.205 C 34.846 9.205,34.715 9.240,34.875 9.282 M164.542 9.282 C 164.702 9.323,164.965 9.323,165.125 9.282 C 165.285 9.240,165.154 9.205,164.833 9.205 C 164.512 9.205,164.381 9.240,164.542 9.282 M234.875 9.282 C 235.035 9.323,235.298 9.323,235.458 9.282 C 235.619 9.240,235.487 9.205,235.167 9.205 C 234.846 9.205,234.715 9.240,234.875 9.282 M364.542 9.282 C 364.702 9.323,364.965 9.323,365.125 9.282 C 365.285 9.240,365.154 9.205,364.833 9.205 C 364.512 9.205,364.381 9.240,364.542 9.282 " stroke="none" fill="#70bcfc" fill-rule="evenodd"></path></g></svg>